<svg xmlns="http://www.w3.org/2000/svg" width="27" height="23"><path fill="#fff" d="M26.427 3.171c-.988.439-2.05.735-3.164.868A5.526 5.526 0 0025.685.991a11.028 11.028 0 01-3.499 1.337 5.51 5.51 0 00-9.388 5.025A15.64 15.64 0 011.443 1.597a5.483 5.483 0 00-.746 2.77c0 1.91.972 3.597 2.45 4.585a5.488 5.488 0 01-2.495-.689v.07a5.513 5.513 0 004.42 5.402 5.52 5.52 0 01-2.489.094 5.515 5.515 0 005.147 3.826 11.053 11.053 0 01-6.843 2.358c-.444 0-.883-.026-1.314-.077a15.594 15.594 0 008.445 2.476c10.134 0 15.676-8.395 15.676-15.676 0-.239-.006-.476-.016-.713a11.193 11.193 0 002.749-2.852z"/></svg>